<svg version="1.1" viewBox="0.0 0.0 752.0367454068241 728.3412073490814" fill="none" stroke="none" stroke-linecap="square" stroke-miterlimit="10" xmlns:xlink="http://www.w3.org/1999/xlink" xmlns="http://www.w3.org/2000/svg"><clipPath id="p.0"><path d="m0 0l752.03674 0l0 728.3412l-752.03674 0l0 -728.3412z" clip-rule="nonzero"/></clipPath><g clip-path="url(#p.0)"><path fill="#000000" fill-opacity="0.0" d="m0 0l752.03674 0l0 728.3412l-752.03674 0z" fill-rule="evenodd"/><path fill="#000000" fill-opacity="0.0" d="m0 21.989502l752.0315 0l0 84.031494l-752.0315 0z" fill-rule="evenodd"/><path fill="#000000" d="m273.94772 68.15825l7.484375 2.359375q-1.71875 6.25 -5.71875 9.296875q-4.0 3.03125 -10.140625 3.03125q-7.609375 0 -12.5 -5.1875q-4.890625 -5.203125 -4.890625 -14.21875q0 -9.53125 4.921875 -14.796875q4.921875 -5.28125 12.9375 -5.28125q7.0 0 11.375 4.140625q2.609375 2.453125 3.90625 7.03125l-7.625 1.828125q-0.6875 -2.96875 -2.828125 -4.6875q-2.140625 -1.71875 -5.21875 -1.71875q-4.25 0 -6.890625 3.046875q-2.640625 3.046875 -2.640625 9.859375q0 7.25 2.59375 10.328125q2.609375 3.0625 6.78125 3.0625q3.078125 0 5.28125 -1.953125q2.21875 -1.953125 3.171875 -6.140625zm12.355621 -0.1875q0 -3.640625 1.796875 -7.046875q1.796875 -3.421875 5.078125 -5.21875q3.296875 -1.796875 7.359375 -1.796875q6.28125 0 10.28125 4.078125q4.015625 4.078125 4.015625 10.296875q0 6.28125 -4.046875 10.40625q-4.046875 4.125 -10.1875 4.125q-3.8125 0 -7.265625 -1.71875q-3.4375 -1.71875 -5.234375 -5.03125q-1.796875 -3.328125 -1.796875 -8.09375zm7.5 0.390625q0 4.109375 1.953125 6.296875q1.953125 2.1875 4.8125 2.1875q2.859375 0 4.796875 -2.1875q1.953125 -2.1875 1.953125 -6.34375q0 -4.0625 -1.953125 -6.25q-1.9375 -2.1875 -4.796875 -2.1875q-2.859375 0 -4.8125 2.1875q-1.953125 2.1875 -1.953125 6.296875zm26.215576 -13.828125l6.75 0l0 3.78125q3.609375 -4.40625 8.609375 -4.40625q2.65625 0 4.609375 1.09375q1.953125 1.09375 3.203125 3.3125q1.828125 -2.21875 3.9375 -3.3125q2.109375 -1.09375 4.5 -1.09375q3.046875 0 5.15625 1.234375q2.109375 1.234375 3.15625 3.640625q0.75 1.765625 0.75 5.71875l0 17.6875l-7.3125 0l0 -15.8125q0 -4.109375 -0.765625 -5.3125q-1.015625 -1.5625 -3.125 -1.5625q-1.53125 0 -2.890625 0.9375q-1.34375 0.9375 -1.953125 2.75q-0.59375 1.8125 -0.59375 5.71875l0 13.28125l-7.3125 0l0 -15.15625q0 -4.03125 -0.390625 -5.203125q-0.390625 -1.171875 -1.21875 -1.75q-0.8125 -0.578125 -2.21875 -0.578125q-1.6875 0 -3.046875 0.921875q-1.359375 0.90625 -1.953125 2.625q-0.578125 1.71875 -0.578125 5.703125l0 13.4375l-7.3125 0l0 -27.65625zm47.417236 0l6.75 0l0 3.78125q3.609375 -4.40625 8.609375 -4.40625q2.65625 0 4.609375 1.09375q1.953125 1.09375 3.203125 3.3125q1.828125 -2.21875 3.9375 -3.3125q2.109375 -1.09375 4.5 -1.09375q3.046875 0 5.15625 1.234375q2.109375 1.234375 3.15625 3.640625q0.75 1.765625 0.75 5.71875l0 17.6875l-7.3125 0l0 -15.8125q0 -4.109375 -0.765625 -5.3125q-1.015625 -1.5625 -3.125 -1.5625q-1.53125 0 -2.890625 0.9375q-1.34375 0.9375 -1.953125 2.75q-0.59375 1.8125 -0.59375 5.71875l0 13.28125l-7.3125 0l0 -15.15625q0 -4.03125 -0.390625 -5.203125q-0.390625 -1.171875 -1.21875 -1.75q-0.8125 -0.578125 -2.21875 -0.578125q-1.6875 0 -3.046875 0.921875q-1.359375 0.90625 -1.953125 2.625q-0.578125 1.71875 -0.578125 5.703125l0 13.4375l-7.3125 0l0 -27.65625zm53.43289 8.4375l-6.640625 -1.203125q1.125 -4.0 3.859375 -5.921875q2.734375 -1.9375 8.125 -1.9375q4.890625 0 7.28125 1.15625q2.40625 1.15625 3.375 2.953125q0.984375 1.78125 0.984375 6.546875l-0.078125 8.53125q0 3.65625 0.34375 5.390625q0.34375 1.71875 1.3125 3.703125l-7.234375 0q-0.28125 -0.734375 -0.703125 -2.15625q-0.1875 -0.65625 -0.265625 -0.859375q-1.875 1.8125 -4.015625 2.734375q-2.125 0.90625 -4.546875 0.90625q-4.265625 0 -6.734375 -2.3125q-2.453125 -2.328125 -2.453125 -5.859375q0 -2.34375 1.109375 -4.171875q1.125 -1.84375 3.140625 -2.8125q2.015625 -0.984375 5.828125 -1.71875q5.125 -0.96875 7.109375 -1.796875l0 -0.734375q0 -2.109375 -1.046875 -3.0q-1.046875 -0.90625 -3.9375 -0.90625q-1.953125 0 -3.046875 0.78125q-1.09375 0.765625 -1.765625 2.6875zm9.796875 5.9375q-1.40625 0.46875 -4.453125 1.125q-3.046875 0.640625 -3.984375 1.265625q-1.4375 1.015625 -1.4375 2.578125q0 1.546875 1.140625 2.671875q1.15625 1.109375 2.921875 1.109375q1.984375 0 3.78125 -1.296875q1.328125 -1.0 1.734375 -2.421875q0.296875 -0.9375 0.296875 -3.578125l0 -1.453125zm39.549194 13.28125l-7.3125 0l0 -14.109375q0 -4.484375 -0.46875 -5.796875q-0.46875 -1.3125 -1.53125 -2.046875q-1.046875 -0.734375 -2.53125 -0.734375q-1.90625 0 -3.421875 1.046875q-1.5 1.046875 -2.0625 2.765625q-0.5625 1.71875 -0.5625 6.34375l0 12.53125l-7.3125 0l0 -27.65625l6.796875 0l0 4.0625q3.609375 -4.6875 9.109375 -4.6875q2.421875 0 4.421875 0.875q2.015625 0.875 3.03125 2.234375q1.03125 1.34375 1.4375 3.0625q0.40625 1.71875 0.40625 4.921875l0 17.1875zm32.778076 0l-6.796875 0l0 -4.0625q-1.6875 2.375 -4.0 3.53125q-2.296875 1.15625 -4.640625 1.15625q-4.765625 0 -8.171875 -3.84375q-3.390625 -3.84375 -3.390625 -10.71875q0 -7.03125 3.296875 -10.6875q3.3125 -3.65625 8.375 -3.65625q4.625 0 8.015625 3.859375l0 -13.75l7.3125 0l0 38.171875zm-19.53125 -14.421875q0 4.421875 1.234375 6.40625q1.765625 2.859375 4.9375 2.859375q2.53125 0 4.296875 -2.140625q1.78125 -2.15625 1.78125 -6.421875q0 -4.765625 -1.71875 -6.859375q-1.71875 -2.109375 -4.40625 -2.109375q-2.609375 0 -4.375 2.078125q-1.75 2.0625 -1.75 6.1875z" fill-rule="nonzero"/><path fill="#000000" fill-opacity="0.0" d="m0 76.661415l752.0315 0l0 84.0315l-752.0315 0z" fill-rule="evenodd"/><path fill="#000000" d="m254.96783 124.43954l7.5 -0.734375q0.6875 3.78125 2.75 5.5625076q2.078125 1.765625 5.59375 1.765625q3.71875 0 5.609375 -1.578125q1.890625 -1.5781326 1.890625 -3.6875076q0 -1.359375 -0.796875 -2.296875q-0.796875 -0.953125 -2.78125 -1.65625q-1.34375 -0.46875 -6.171875 -1.671875q-6.1875 -1.53125 -8.6875 -3.78125q-3.515625 -3.140625 -3.515625 -7.671875q0 -2.921875 1.640625 -5.453125q1.65625 -2.546875 4.765625 -3.875q3.125 -1.328125 7.515625 -1.328125q7.1875 0 10.8125 3.15625q3.640625 3.15625 3.828125 8.40625l-7.703125 0.34375q-0.5 -2.9375 -2.125 -4.21875q-1.625 -1.296875 -4.890625 -1.296875q-3.359375 0 -5.25 1.375q-1.234375 0.890625 -1.234375 2.375q0 1.34375 1.15625 2.3125q1.453125 1.21875 7.078125 2.546875q5.625 1.328125 8.3125 2.75q2.703125 1.421875 4.21875 3.890625q1.53125 2.453125 1.53125 6.0625q0 3.2812576 -1.828125 6.1562576q-1.828125 2.859375 -5.15625 4.25q-3.328125 1.390625 -8.296875 1.390625q-7.25 0 -11.125 -3.34375q-3.875 -3.34375 -4.640625 -9.750008zm37.272583 -15.234375l6.8125 0l0 4.0625q1.328125 -2.078125 3.59375 -3.375q2.265625 -1.3125 5.03125 -1.3125q4.8125 0 8.171875 3.78125q3.359375 3.765625 3.359375 10.515625q0 6.9218826 -3.390625 10.765633q-3.375 3.84375 -8.1875 3.84375q-2.296875 0 -4.15625 -0.90625q-1.859375 -0.921875 -3.921875 -3.125l0 13.921875l-7.3125 0l0 -38.171883zm7.234375 13.359375q0 4.65625 1.84375 6.8906326q1.859375 2.21875 4.515625 2.21875q2.546875 0 4.234375 -2.03125q1.703125 -2.0468826 1.703125 -6.7187576q0 -4.34375 -1.75 -6.453125q-1.75 -2.109375 -4.328125 -2.109375q-2.671875 0 -4.453125 2.078125q-1.765625 2.0625 -1.765625 6.125zm41.559326 5.5000076l7.28125 1.21875q-1.390625 4.015625 -4.4375 6.109375q-3.03125 2.09375 -7.578125 2.09375q-7.21875 0 -10.6875 -4.71875q-2.734375 -3.765625 -2.734375 -9.531258q0 -6.875 3.59375 -10.765625q3.59375 -3.890625 9.09375 -3.890625q6.171875 0 9.734375 4.078125q3.5625 4.078125 3.40625 12.484375l-18.328125 0q0.078125 3.2500076 1.765625 5.0625076q1.703125 1.8125 4.234375 1.8125q1.71875 0 2.890625 -0.9375q1.171875 -0.9375 1.765625 -3.015625zm0.421875 -7.4062576q-0.078125 -3.171875 -1.640625 -4.828125q-1.5625 -1.65625 -3.8125 -1.65625q-2.390625 0 -3.953125 1.75q-1.5625 1.75 -1.53125 4.734375l10.9375 0zm29.236694 7.4062576l7.28125 1.21875q-1.390625 4.015625 -4.4375 6.109375q-3.03125 2.09375 -7.578125 2.09375q-7.21875 0 -10.6875 -4.71875q-2.734375 -3.765625 -2.734375 -9.531258q0 -6.875 3.59375 -10.765625q3.59375 -3.890625 9.09375 -3.890625q6.171875 0 9.734375 4.078125q3.5625 4.078125 3.40625 12.484375l-18.328125 0q0.078125 3.2500076 1.765625 5.0625076q1.703125 1.8125 4.234375 1.8125q1.71875 0 2.890625 -0.9375q1.171875 -0.9375 1.765625 -3.015625zm0.421875 -7.4062576q-0.078125 -3.171875 -1.640625 -4.828125q-1.5625 -1.65625 -3.8125 -1.65625q-2.390625 0 -3.953125 1.75q-1.5625 1.75 -1.53125 4.734375l10.9375 0zm38.580444 16.203133l-6.796875 0l0 -4.0625q-1.6875 2.375 -4.0 3.53125q-2.296875 1.15625 -4.640625 1.15625q-4.765625 0 -8.171875 -3.84375q-3.390625 -3.84375 -3.390625 -10.718758q0 -7.03125 3.296875 -10.6875q3.3125 -3.65625 8.375 -3.65625q4.625 0 8.015625 3.859375l0 -13.75l7.3125 0l0 38.171883zm-19.53125 -14.421883q0 4.421875 1.234375 6.4062576q1.765625 2.859375 4.9375 2.859375q2.53125 0 4.296875 -2.140625q1.78125 -2.1562576 1.78125 -6.4218826q0 -4.765625 -1.71875 -6.859375q-1.71875 -2.109375 -4.40625 -2.109375q-2.609375 0 -4.375 2.078125q-1.75 2.0625 -1.75 6.1875zm41.56308 -23.75l7.703125 0l0 20.671875q0 4.921875 0.296875 6.375q0.484375 2.3437576 2.34375 3.7656326q1.875 1.421875 5.09375 1.421875q3.28125 0 4.953125 -1.34375q1.671875 -1.34375 2.0 -3.2968826q0.34375 -1.953125 0.34375 -6.484375l0 -21.109375l7.703125 0l0 20.046875q0 6.875 -0.625 9.718758q-0.625 2.828125 -2.3125 4.78125q-1.671875 1.953125 -4.484375 3.125q-2.8125 1.15625 -7.34375 1.15625q-5.46875 0 -8.296875 -1.265625q-2.8125 -1.265625 -4.453125 -3.28125q-1.640625 -2.015625 -2.171875 -4.234375q-0.75 -3.2812576 -0.75 -9.687508l0 -20.359375zm38.308746 10.515625l6.8125 0l0 4.0625q1.328125 -2.078125 3.59375 -3.375q2.265625 -1.3125 5.03125 -1.3125q4.8125 0 8.171875 3.78125q3.359375 3.765625 3.359375 10.515625q0 6.9218826 -3.390625 10.765633q-3.375 3.84375 -8.1875 3.84375q-2.296875 0 -4.15625 -0.90625q-1.859375 -0.921875 -3.921875 -3.125l0 13.921875l-7.3125 0l0 -38.171883zm7.234375 13.359375q0 4.65625 1.84375 6.8906326q1.859375 2.21875 4.515625 2.21875q2.546875 0 4.234375 -2.03125q1.703125 -2.0468826 1.703125 -6.7187576q0 -4.34375 -1.75 -6.453125q-1.75 -2.109375 -4.328125 -2.109375q-2.671875 0 -4.453125 2.078125q-1.765625 2.0625 -1.765625 6.125z" fill-rule="nonzero"/><path fill="#000000" fill-opacity="0.0" d="m178.3202 576.69293l73.70079 -144.34647" fill-rule="evenodd"/><path stroke="#4a86e8" stroke-width="8.0" stroke-linejoin="round" stroke-linecap="butt" d="m178.3202 576.69293l51.873383 -101.596466" fill-rule="evenodd"/><path fill="#4a86e8" stroke="#4a86e8" stroke-width="8.0" stroke-linecap="butt" d="m241.96219 481.10532l4.740555 -38.342804l-28.277756 26.325104z" fill-rule="evenodd"/><path fill="#000000" fill-opacity="0.0" d="m377.8819 212.6063l72.91339 133.82678" fill-rule="evenodd"/><path stroke="#4a86e8" stroke-width="8.0" stroke-linejoin="round" stroke-linecap="butt" d="m377.8819 212.6063l49.94864 91.67679" fill-rule="evenodd"/><path fill="#4a86e8" stroke="#4a86e8" stroke-width="8.0" stroke-linecap="butt" d="m416.2271 310.60504l28.972809 25.558167l-5.7659607 -38.202057z" fill-rule="evenodd"/><path fill="#000000" fill-opacity="0.0" d="m494.11023 433.08398l76.69293 150.36218" fill-rule="evenodd"/><path stroke="#4a86e8" stroke-width="8.0" stroke-linejoin="round" stroke-linecap="butt" d="m494.11023 433.08398l54.883423 107.60309" fill-rule="evenodd"/><path fill="#4a86e8" stroke="#4a86e8" stroke-width="8.0" stroke-linecap="butt" d="m537.22253 546.6909l28.266724 26.336975l-4.7244873 -38.344788z" fill-rule="evenodd"/><path fill="#000000" fill-opacity="0.0" d="m167.63255 446.33597l56.818893 0l0 84.03146l-56.818893 0z" fill-rule="evenodd"/><path fill="#4a86e8" d="m197.61693 506.53595l-7.3125 0l0 -27.578125q-4.015625 3.75 -9.453125 5.546875l0 -6.640625q2.859375 -0.9375 6.21875 -3.546875q3.359375 -2.625 4.609375 -6.109375l5.9375 0l0 38.328125z" fill-rule="nonzero"/><path fill="#000000" fill-opacity="0.0" d="m429.02362 221.52493l56.81891 0l0 84.031494l-56.81891 0z" fill-rule="evenodd"/><path fill="#4a86e8" d="m464.99237 274.92807l0 6.796875l-25.640625 0q0.421875 -3.859375 2.5 -7.296875q2.078125 -3.453125 8.234375 -9.15625q4.9375 -4.609375 6.0625 -6.25q1.515625 -2.265625 1.515625 -4.4843903q0 -2.4375 -1.328125 -3.75q-1.3125 -1.328125 -3.625 -1.328125q-2.296875 0 -3.65625 1.390625q-1.34375 1.375 -1.546875 4.578125l-7.296875 -0.734375q0.65625 -6.03125 4.09375 -8.65625q3.4375 -2.640625 8.59375 -2.640625q5.640625 0 8.859375 3.046875q3.234375 3.046875 3.234375 7.578125q0 2.5781403 -0.921875 4.9062653q-0.921875 2.328125 -2.921875 4.875q-1.328125 1.703125 -4.796875 4.875q-3.453125 3.171875 -4.390625 4.21875q-0.921875 1.046875 -1.484375 2.03125l14.515625 0z" fill-rule="nonzero"/><path fill="#000000" fill-opacity="0.0" d="m548.4042 452.72964l56.81891 0l0 84.031525l-56.81891 0z" fill-rule="evenodd"/><path fill="#4a86e8" d="m559.4042 502.80466l7.09375 -0.859375q0.328125 2.703125 1.8125 4.140625q1.484375 1.421875 3.59375 1.421875q2.265625 0 3.8125 -1.71875q1.5625 -1.71875 1.5625 -4.625q0 -2.765625 -1.484375 -4.375q-1.484375 -1.625 -3.625 -1.625q-1.40625 0 -3.359375 0.546875l0.8125 -5.953125q2.96875 0.078125 4.53125 -1.28125q1.5625 -1.375 1.5625 -3.640625q0 -1.921875 -1.15625 -3.0625q-1.140625 -1.15625 -3.046875 -1.15625q-1.875 0 -3.203125 1.3125q-1.328125 1.296875 -1.609375 3.796875l-6.75 -1.15625q0.703125 -3.453125 2.125 -5.515625q1.421875 -2.078125 3.953125 -3.265625q2.546875 -1.1875 5.703125 -1.1875q5.390625 0 8.640625 3.4375q2.6875 2.8125 2.6875 6.359375q0 5.015625 -5.5 8.015625q3.28125 0.703125 5.234375 3.15625q1.96875 2.4375 1.96875 5.90625q0 5.015625 -3.671875 8.5625q-3.65625 3.5468445 -9.125 3.5468445q-5.1875 0 -8.609375 -2.9843445q-3.40625 -2.984375 -3.953125 -7.796875z" fill-rule="nonzero"/><path fill="#000000" fill-opacity="0.0" d="m587.50134 221.52493l56.818848 0l0 84.031494l-56.818848 0z" fill-rule="evenodd"/><path fill="#000000" fill-opacity="0.0" d="m376.01575 265.02625l-162.80315 325.63782" fill-rule="evenodd"/><path stroke="#000000" stroke-width="8.0" stroke-linejoin="round" stroke-linecap="butt" d="m376.01575 265.02625l-162.80315 325.63782" fill-rule="evenodd"/><path fill="#000000" fill-opacity="0.0" d="m376.01575 265.02625l162.83466 325.63782" fill-rule="evenodd"/><path stroke="#000000" stroke-width="8.0" stroke-linejoin="round" stroke-linecap="butt" d="m376.01575 265.02625l162.83466 325.63782" fill-rule="evenodd"/><path fill="#000000" d="m371.68243 264.6719l4.3306885 -8.188965l4.330719 8.188965z" fill-rule="evenodd"/><path fill="#000000" d="m374.11548 263.9685l2.8031616 0l0 1.6377869l-2.8031616 0z" fill-rule="evenodd"/><path stroke="#000000" stroke-width="1.0" stroke-linejoin="round" stroke-linecap="butt" d="m374.11548 263.9685l2.8031616 0l0 1.6377869l-2.8031616 0z" fill-rule="evenodd"/><path fill="#000000" fill-opacity="0.0" d="m377.8819 212.6063l-64.66144 104.50394" fill-rule="evenodd"/><path stroke="#4a86e8" stroke-width="8.0" stroke-linejoin="round" stroke-linecap="butt" d="m377.8819 212.6063l-64.66144 104.50394" fill-rule="evenodd"/><path fill="#4a86e8" d="m371.19684 216.28871l6.661438 -11.685043l6.6614075 11.685043z" fill-rule="evenodd"/></g></svg>