<svg version="1.1" viewBox="0.0 0.0 752.0367454068241 728.3412073490814" fill="none" stroke="none" stroke-linecap="square" stroke-miterlimit="10" xmlns:xlink="http://www.w3.org/1999/xlink" xmlns="http://www.w3.org/2000/svg"><clipPath id="p.0"><path d="m0 0l752.03674 0l0 728.3412l-752.03674 0l0 -728.3412z" clip-rule="nonzero"/></clipPath><g clip-path="url(#p.0)"><path fill="#000000" fill-opacity="0.0" d="m0 0l752.03674 0l0 728.3412l-752.03674 0z" fill-rule="evenodd"/><path fill="#000000" fill-opacity="0.0" d="m0 21.989502l752.0315 0l0 84.031494l-752.0315 0z" fill-rule="evenodd"/><path fill="#000000" d="m241.88333 82.1895l0 -38.171875l7.71875 0l0 38.171875l-7.71875 0zm40.160004 0l-7.3125 0l0 -14.109375q0 -4.484375 -0.46875 -5.796875q-0.46875 -1.3125 -1.53125 -2.046875q-1.046875 -0.734375 -2.53125 -0.734375q-1.90625 0 -3.421875 1.046875q-1.5 1.046875 -2.0625 2.765625q-0.5625 1.71875 -0.5625 6.34375l0 12.53125l-7.3125 0l0 -27.65625l6.796875 0l0 4.0625q3.609375 -4.6875 9.109375 -4.6875q2.421875 0 4.421875 0.875q2.015625 0.875 3.03125 2.234375q1.03125 1.34375 1.4375 3.0625q0.40625 1.71875 0.40625 4.921875l0 17.1875zm4.840576 -7.890625l7.34375 -1.125q0.46875 2.140625 1.890625 3.25q1.4375 1.109375 4.015625 1.109375q2.84375 0 4.28125 -1.046875q0.953125 -0.734375 0.953125 -1.953125q0 -0.828125 -0.515625 -1.375q-0.546875 -0.53125 -2.453125 -0.96875q-8.84375 -1.953125 -11.21875 -3.5625q-3.28125 -2.25 -3.28125 -6.234375q0 -3.59375 2.828125 -6.03125q2.84375 -2.453125 8.8125 -2.453125q5.671875 0 8.4375 1.859375q2.765625 1.84375 3.796875 5.453125l-6.890625 1.28125q-0.453125 -1.609375 -1.6875 -2.46875q-1.234375 -0.859375 -3.53125 -0.859375q-2.890625 0 -4.140625 0.796875q-0.828125 0.578125 -0.828125 1.484375q0 0.78125 0.734375 1.328125q0.984375 0.734375 6.828125 2.0625q5.84375 1.328125 8.171875 3.25q2.28125 1.953125 2.28125 5.453125q0 3.796875 -3.171875 6.53125q-3.171875 2.734375 -9.40625 2.734375q-5.640625 0 -8.9375 -2.28125q-3.296875 -2.296875 -4.3125 -6.234375zm44.924194 -19.765625l0 5.828125l-5.0 0l0 11.15625q0 3.375 0.140625 3.9375q0.140625 0.5625 0.640625 0.9375q0.515625 0.359375 1.25 0.359375q1.015625 0 2.9375 -0.703125l0.625 5.671875q-2.546875 1.09375 -5.78125 1.09375q-1.984375 0 -3.578125 -0.65625q-1.578125 -0.671875 -2.328125 -1.71875q-0.734375 -1.0625 -1.015625 -2.859375q-0.234375 -1.28125 -0.234375 -5.15625l0 -12.0625l-3.359375 0l0 -5.828125l3.359375 0l0 -5.484375l7.34375 -4.28125l0 9.765625l5.0 0zm12.0711975 27.65625l-7.3125 0l0 -27.65625l6.796875 0l0 3.9375q1.75 -2.796875 3.140625 -3.671875q1.390625 -0.890625 3.15625 -0.890625q2.5 0 4.828125 1.390625l-2.265625 6.375q-1.859375 -1.203125 -3.4375 -1.203125q-1.546875 0 -2.609375 0.84375q-1.0625 0.84375 -1.6875 3.0625q-0.609375 2.21875 -0.609375 9.265625l0 8.546875zm31.95633 0l0 -4.140625q-1.515625 2.21875 -3.984375 3.5q-2.453125 1.265625 -5.1875 1.265625q-2.78125 0 -5.0 -1.21875q-2.203125 -1.234375 -3.203125 -3.4375q-0.984375 -2.21875 -0.984375 -6.125l0 -17.5l7.3125 0l0 12.703125q0 5.84375 0.40625 7.15625q0.40625 1.3125 1.46875 2.078125q1.078125 0.765625 2.71875 0.765625q1.875 0 3.359375 -1.015625q1.484375 -1.03125 2.03125 -2.546875q0.546875 -1.53125 0.546875 -7.46875l0 -11.671875l7.3125 0l0 27.65625l-6.796875 0zm13.824951 -27.65625l6.75 0l0 3.78125q3.609375 -4.40625 8.609375 -4.40625q2.65625 0 4.609375 1.09375q1.953125 1.09375 3.203125 3.3125q1.828125 -2.21875 3.9375 -3.3125q2.109375 -1.09375 4.5 -1.09375q3.046875 0 5.15625 1.234375q2.109375 1.234375 3.15625 3.640625q0.75 1.765625 0.75 5.71875l0 17.6875l-7.3125 0l0 -15.8125q0 -4.109375 -0.765625 -5.3125q-1.015625 -1.5625 -3.125 -1.5625q-1.53125 0 -2.890625 0.9375q-1.34375 0.9375 -1.953125 2.75q-0.59375 1.8125 -0.59375 5.71875l0 13.28125l-7.3125 0l0 -15.15625q0 -4.03125 -0.390625 -5.203125q-0.390625 -1.171875 -1.21875 -1.75q-0.8125 -0.578125 -2.21875 -0.578125q-1.6875 0 -3.046875 0.921875q-1.359375 0.90625 -1.953125 2.625q-0.578125 1.71875 -0.578125 5.703125l0 13.4375l-7.3125 0l0 -27.65625zm63.979736 18.859375l7.28125 1.21875q-1.390625 4.015625 -4.4375 6.109375q-3.03125 2.09375 -7.578125 2.09375q-7.21875 0 -10.6875 -4.71875q-2.734375 -3.765625 -2.734375 -9.53125q0 -6.875 3.59375 -10.765625q3.59375 -3.890625 9.09375 -3.890625q6.171875 0 9.734375 4.078125q3.5625 4.078125 3.40625 12.484375l-18.328125 0q0.078125 3.25 1.765625 5.0625q1.703125 1.8125 4.234375 1.8125q1.71875 0 2.890625 -0.9375q1.171875 -0.9375 1.765625 -3.015625zm0.421875 -7.40625q-0.078125 -3.171875 -1.640625 -4.828125q-1.5625 -1.65625 -3.8125 -1.65625q-2.390625 0 -3.953125 1.75q-1.5625 1.75 -1.53125 4.734375l10.9375 0zm38.37732 16.203125l-7.3125 0l0 -14.109375q0 -4.484375 -0.46875 -5.796875q-0.46875 -1.3125 -1.53125 -2.046875q-1.046875 -0.734375 -2.53125 -0.734375q-1.90625 0 -3.421875 1.046875q-1.5 1.046875 -2.0625 2.765625q-0.5625 1.71875 -0.5625 6.34375l0 12.53125l-7.3125 0l0 -27.65625l6.796875 0l0 4.0625q3.609375 -4.6875 9.109375 -4.6875q2.421875 0 4.421875 0.875q2.015625 0.875 3.03125 2.234375q1.03125 1.34375 1.4375 3.0625q0.40625 1.71875 0.40625 4.921875l0 17.1875zm20.106201 -27.65625l0 5.828125l-5.0 0l0 11.15625q0 3.375 0.140625 3.9375q0.140625 0.5625 0.640625 0.9375q0.515625 0.359375 1.25 0.359375q1.015625 0 2.9375 -0.703125l0.625 5.671875q-2.546875 1.09375 -5.78125 1.09375q-1.984375 0 -3.578125 -0.65625q-1.578125 -0.671875 -2.328125 -1.71875q-0.734375 -1.0625 -1.015625 -2.859375q-0.234375 -1.28125 -0.234375 -5.15625l0 -12.0625l-3.359375 0l0 -5.828125l3.359375 0l0 -5.484375l7.34375 -4.28125l0 9.765625l5.0 0z" fill-rule="nonzero"/><path fill="#000000" fill-opacity="0.0" d="m0 76.661415l752.0315 0l0 84.0315l-752.0315 0z" fill-rule="evenodd"/><path fill="#000000" d="m339.12366 122.83016l7.484375 2.359375q-1.71875 6.2500076 -5.71875 9.296883q-4.0 3.03125 -10.140625 3.03125q-7.609375 0 -12.5 -5.1875q-4.890625 -5.2031326 -4.890625 -14.218758q0 -9.53125 4.921875 -14.796875q4.921875 -5.28125 12.9375 -5.28125q7.0 0 11.375 4.140625q2.609375 2.453125 3.90625 7.03125l-7.625 1.828125q-0.6875 -2.96875 -2.828125 -4.6875q-2.140625 -1.71875 -5.21875 -1.71875q-4.25 0 -6.890625 3.046875q-2.640625 3.046875 -2.640625 9.859375q0 7.25 2.59375 10.328125q2.609375 3.0625076 6.78125 3.0625076q3.078125 0 5.28125 -1.953125q2.21875 -1.9531326 3.171875 -6.1406326zm30.058746 5.2343826l7.28125 1.21875q-1.390625 4.015625 -4.4375 6.109375q-3.03125 2.09375 -7.578125 2.09375q-7.21875 0 -10.6875 -4.71875q-2.734375 -3.765625 -2.734375 -9.531258q0 -6.875 3.59375 -10.765625q3.59375 -3.890625 9.09375 -3.890625q6.171875 0 9.734375 4.078125q3.5625 4.078125 3.40625 12.484375l-18.328125 0q0.078125 3.2500076 1.765625 5.0625076q1.703125 1.8125 4.234375 1.8125q1.71875 0 2.890625 -0.9375q1.171875 -0.9375 1.765625 -3.015625zm0.421875 -7.4062576q-0.078125 -3.171875 -1.640625 -4.828125q-1.5625 -1.65625 -3.8125 -1.65625q-2.390625 0 -3.953125 1.75q-1.5625 1.75 -1.53125 4.734375l10.9375 0zm13.221069 16.203133l0 -38.171883l7.3125 0l0 38.171883l-7.3125 0zm14.816254 0l0 -38.171883l7.3125 0l0 38.171883l-7.3125 0zm13.128784 -14.218758q0 -3.640625 1.796875 -7.046875q1.796875 -3.421875 5.078125 -5.21875q3.296875 -1.796875 7.359375 -1.796875q6.28125 0 10.28125 4.078125q4.015625 4.078125 4.015625 10.296875q0 6.2812576 -4.046875 10.406258q-4.046875 4.125 -10.1875 4.125q-3.8125 0 -7.265625 -1.71875q-3.4375 -1.71875 -5.234375 -5.03125q-1.796875 -3.3281326 -1.796875 -8.093758zm7.5 0.390625q0 4.109375 1.953125 6.2968826q1.953125 2.1875 4.8125 2.1875q2.859375 0 4.796875 -2.1875q1.953125 -2.1875076 1.953125 -6.3437576q0 -4.0625 -1.953125 -6.25q-1.9375 -2.1875 -4.796875 -2.1875q-2.859375 0 -4.8125 2.1875q-1.953125 2.1875 -1.953125 6.296875z" fill-rule="nonzero"/><path fill="#000000" fill-opacity="0.0" d="m164.14436 197.55643l56.818893 0l0 84.031494l-56.818893 0z" fill-rule="evenodd"/><path fill="#4a86e8" d="m194.12874 257.75644l-7.3125 0l0 -27.57814q-4.015625 3.75 -9.453125 5.546875l0 -6.640625q2.859375 -0.9375 6.21875 -3.546875q3.359375 -2.625 4.609375 -6.109375l5.9375 0l0 38.32814z" fill-rule="nonzero"/><path fill="#000000" fill-opacity="0.0" d="m160.83464 513.4803l56.81891 0l0 84.031555l-56.81891 0z" fill-rule="evenodd"/><path fill="#4a86e8" d="m196.80339 566.8834l0 6.796875l-25.640625 0q0.421875 -3.859375 2.5 -7.296875q2.078125 -3.453125 8.234375 -9.15625q4.9375 -4.609375 6.0625 -6.25q1.515625 -2.265625 1.515625 -4.484375q0 -2.4375 -1.328125 -3.75q-1.3125 -1.328125 -3.625 -1.328125q-2.296875 0 -3.65625 1.390625q-1.34375 1.375 -1.546875 4.578125l-7.296875 -0.734375q0.65625 -6.03125 4.09375 -8.65625q3.4375 -2.640625 8.59375 -2.640625q5.640625 0 8.859375 3.046875q3.234375 3.046875 3.234375 7.578125q0 2.578125 -0.921875 4.90625q-0.921875 2.328125 -2.921875 4.875q-1.328125 1.703125 -4.796875 4.875q-3.453125 3.171875 -4.390625 4.21875q-0.921875 1.046875 -1.484375 2.03125l14.515625 0z" fill-rule="nonzero"/><path fill="#000000" fill-opacity="0.0" d="m524.45667 513.4803l56.81891 0l0 84.031555l-56.81891 0z" fill-rule="evenodd"/><path fill="#4a86e8" d="m535.45667 563.5553l7.09375 -0.859375q0.328125 2.703125 1.8125 4.140625q1.484375 1.421875 3.59375 1.421875q2.265625 0 3.8125 -1.71875q1.5625 -1.71875 1.5625 -4.625q0 -2.765625 -1.484375 -4.375q-1.484375 -1.625 -3.625 -1.625q-1.40625 0 -3.359375 0.546875l0.8125 -5.953125q2.96875 0.078125 4.53125 -1.28125q1.5625 -1.375 1.5625 -3.640625q0 -1.921875 -1.15625 -3.0625q-1.140625 -1.15625 -3.046875 -1.15625q-1.875 0 -3.203125 1.3125q-1.328125 1.296875 -1.609375 3.796875l-6.75 -1.15625q0.703125 -3.453125 2.125 -5.515625q1.421875 -2.078125 3.953125 -3.265625q2.546875 -1.1875 5.703125 -1.1875q5.390625 0 8.640625 3.4375q2.6875 2.8125 2.6875 6.359375q0 5.015625 -5.5 8.015625q3.28125 0.703125 5.234375 3.15625q1.96875 2.4375 1.96875 5.90625q0 5.015625 -3.671875 8.5625q-3.65625 3.546875 -9.125 3.546875q-5.1875 0 -8.609375 -2.984375q-3.40625 -2.984375 -3.953125 -7.796875z" fill-rule="nonzero"/><path fill="#000000" fill-opacity="0.0" d="m534.94226 197.55643l56.81891 0l0 84.031494l-56.81891 0z" fill-rule="evenodd"/><path fill="#4a86e8" d="m560.55164 257.75644l0 -7.6875153l-15.625 0l0 -6.40625l16.5625 -24.234375l6.15625 0l0 24.21875l4.734375 0l0 6.421875l-4.734375 0l0 7.6875153l-7.09375 0zm0 -14.10939l0 -13.046875l-8.765625 13.046875l8.765625 0z" fill-rule="nonzero"/><path fill="#000000" fill-opacity="0.0" d="m226.77165 377.95276l0 0c0 -83.495026 67.68608 -151.1811 151.1811 -151.1811l0 0c40.095734 0 78.549225 15.927963 106.901184 44.279922c28.351929 28.35196 44.279907 66.80545 44.279907 106.901184l0 0c0 83.495026 -67.686066 151.18109 -151.18109 151.18109l0 0c-83.495026 0 -151.1811 -67.686066 -151.1811 -151.18109z" fill-rule="evenodd"/><path stroke="#000000" stroke-width="8.0" stroke-linejoin="round" stroke-linecap="butt" d="m226.77165 377.95276l0 0c0 -83.495026 67.68608 -151.1811 151.1811 -151.1811l0 0c40.095734 0 78.549225 15.927963 106.901184 44.279922c28.351929 28.35196 44.279907 66.80545 44.279907 106.901184l0 0c0 83.495026 -67.686066 151.18109 -151.18109 151.18109l0 0c-83.495026 0 -151.1811 -67.686066 -151.1811 -151.18109z" fill-rule="evenodd"/><path fill="#000000" fill-opacity="0.0" d="m460.70596 208.05873l0 0c52.96048 25.796371 90.86197 74.8145 102.499176 132.56258l-185.25238 37.33145z" fill-rule="evenodd"/><path fill="#000000" fill-opacity="0.0" d="m460.70596 208.05873l0 0c52.96048 25.796371 90.86197 74.8145 102.499176 132.56258" fill-rule="evenodd"/><path stroke="#4a86e8" stroke-width="8.0" stroke-linejoin="round" stroke-linecap="butt" d="m460.70596 208.05873l0 0c52.96048 25.796371 90.86197 74.8145 102.499176 132.56258" fill-rule="evenodd"/><path fill="#4a86e8" d="m456.72534 227.21114l-41.1185 -35.818954l54.63031 0.5748596z" fill-rule="evenodd"/><path fill="#000000" fill-opacity="0.0" d="m547.8468 460.70596l0 0c-25.796387 52.96048 -74.814514 90.86197 -132.56259 102.499176l-37.33145 -185.25238z" fill-rule="evenodd"/><path fill="#000000" fill-opacity="0.0" d="m547.8468 460.70596l0 0c-25.796387 52.96048 -74.814514 90.86197 -132.56259 102.499176" fill-rule="evenodd"/><path stroke="#4a86e8" stroke-width="8.0" stroke-linejoin="round" stroke-linecap="butt" d="m547.8468 460.70596l0 0c-25.796387 52.96048 -74.814514 90.86197 -132.56259 102.499176" fill-rule="evenodd"/><path fill="#000000" fill-opacity="0.0" d="m295.19955 547.8468l0 0c-52.96048 -25.796387 -90.86195 -74.814514 -102.499146 -132.56259l185.25235 -37.33145z" fill-rule="evenodd"/><path fill="#000000" fill-opacity="0.0" d="m295.19955 547.8468l0 0c-52.96048 -25.796387 -90.86195 -74.814514 -102.499146 -132.56259" fill-rule="evenodd"/><path stroke="#4a86e8" stroke-width="8.0" stroke-linejoin="round" stroke-linecap="butt" d="m295.19955 547.8468l0 0c-52.96048 -25.796387 -90.86195 -74.814514 -102.499146 -132.56259" fill-rule="evenodd"/><path fill="#000000" fill-opacity="0.0" d="m208.05873 295.19955l0 0c25.796371 -52.96048 74.8145 -90.86195 132.56258 -102.499146l37.33145 185.25235z" fill-rule="evenodd"/><path fill="#000000" fill-opacity="0.0" d="m208.05873 295.19955l0 0c25.796371 -52.96048 74.8145 -90.86195 132.56258 -102.499146" fill-rule="evenodd"/><path stroke="#4a86e8" stroke-width="8.0" stroke-linejoin="round" stroke-linecap="butt" d="m208.05873 295.19955l0 0c25.796371 -52.96048 74.8145 -90.86195 132.56258 -102.499146" fill-rule="evenodd"/><path fill="#4a86e8" d="m526.1102 463.1811l35.772156 -41.02487l-0.6225586 54.725677z" fill-rule="evenodd"/><path fill="#4a86e8" d="m297.92126 528.7559l41.056366 35.72473l-54.75717 -0.54364014z" fill-rule="evenodd"/><path fill="#4a86e8" d="m231.93701 285.5118l-35.771866 40.930695l0.55926514 -54.69449z" fill-rule="evenodd"/></g></svg>